<svg width="174" height="174" viewBox="0 0 174 174" fill="none" xmlns="http://www.w3.org/2000/svg">
<circle cx="87" cy="87" r="87" fill="#D9D9D9" fill-opacity="0.4"/>
<g clip-path="url(#clip0_70_190)">
<path d="M80.2 86.4486C80.2 84.6451 80.9164 82.9155 82.1917 81.6402C83.4669 80.365 85.1965 79.6486 87 79.6486C88.8035 79.6486 90.5331 80.365 91.8083 81.6402C93.0836 82.9155 93.8 84.6451 93.8 86.4486C93.8 88.252 93.0836 89.9816 91.8083 91.2569C90.5331 92.5321 88.8035 93.2486 87 93.2486C85.1965 93.2486 83.4669 92.5321 82.1917 91.2569C80.9164 89.9816 80.2 88.252 80.2 86.4486Z" fill="white"/>
<path fill-rule="evenodd" clip-rule="evenodd" d="M57.5333 86.4485C57.5369 78.6363 60.6432 71.1453 66.169 65.6228C71.6948 60.1004 79.1877 56.9988 87 57C103.27 57 116.467 70.1875 116.467 86.4485C116.467 98.5707 110.401 108.177 103.9 114.669C101.027 117.555 97.806 120.073 94.3123 122.167C92.8525 123.028 91.488 123.708 90.3003 124.17C89.1805 124.615 88.0064 124.959 87 124.959C85.9936 124.959 84.8195 124.615 83.6997 124.17C82.3131 123.606 80.9718 122.936 79.6877 122.167C76.1941 120.073 72.9735 117.555 70.0997 114.669C63.5989 108.177 57.5333 98.5707 57.5333 86.4485ZM87 75.1197C83.9942 75.1197 81.1115 76.3138 78.9861 78.4392C76.8607 80.5646 75.6667 83.4473 75.6667 86.4531C75.6667 89.4589 76.8607 92.3415 78.9861 94.4669C81.1115 96.5924 83.9942 97.7864 87 97.7864C90.0058 97.7864 92.8885 96.5924 95.0139 94.4669C97.1393 92.3415 98.3333 89.4589 98.3333 86.4531C98.3333 83.4473 97.1393 80.5646 95.0139 78.4392C92.8885 76.3138 90.0058 75.1197 87 75.1197Z" fill="white"/>
</g>
<defs>
<clipPath id="clip0_70_190">
<rect width="68" height="68" fill="white" transform="translate(53 57)"/>
</clipPath>
</defs>
</svg>
