<svg width="174" height="174" viewBox="0 0 174 174" fill="none" xmlns="http://www.w3.org/2000/svg">
<circle cx="87" cy="87" r="87" fill="#D9D9D9" fill-opacity="0.4"/>
<path d="M112.833 56.5834H60.1667C56.5458 56.5834 53.6163 59.5459 53.6163 63.1667L53.5833 122.417L66.75 109.25H112.833C116.454 109.25 119.417 106.288 119.417 102.667V63.1667C119.417 59.5459 116.454 56.5834 112.833 56.5834ZM102.958 96.0834H70.0417C68.2313 96.0834 66.75 94.6021 66.75 92.7917C66.75 90.9813 68.2313 89.5 70.0417 89.5H102.958C104.769 89.5 106.25 90.9813 106.25 92.7917C106.25 94.6021 104.769 96.0834 102.958 96.0834ZM102.958 86.2084H70.0417C68.2313 86.2084 66.75 84.7271 66.75 82.9167C66.75 81.1063 68.2313 79.625 70.0417 79.625H102.958C104.769 79.625 106.25 81.1063 106.25 82.9167C106.25 84.7271 104.769 86.2084 102.958 86.2084ZM102.958 76.3334H70.0417C68.2313 76.3334 66.75 74.8521 66.75 73.0417C66.75 71.2313 68.2313 69.75 70.0417 69.75H102.958C104.769 69.75 106.25 71.2313 106.25 73.0417C106.25 74.8521 104.769 76.3334 102.958 76.3334Z" fill="white"/>
</svg>
