<svg width="174" height="174" viewBox="0 0 174 174" fill="none" xmlns="http://www.w3.org/2000/svg">
<circle cx="87" cy="87" r="87" fill="#D9D9D9" fill-opacity="0.4"/>
<path d="M107.566 123.125C104.593 123.125 100.415 122.05 94.1601 118.555C86.5536 114.289 80.6701 110.351 73.1047 102.805C65.8105 95.5158 62.2609 90.7962 57.293 81.7561C51.6806 71.5491 52.6373 66.1988 53.7068 63.9121C54.9804 61.179 56.8603 59.5444 59.2902 57.9219C60.6703 57.0177 62.1309 56.2425 63.6533 55.6063C63.8057 55.5408 63.9473 55.4783 64.0738 55.422C64.8279 55.0822 65.9705 54.5688 67.4177 55.1173C68.3836 55.4799 69.2459 56.2218 70.5956 57.5548C73.3637 60.2848 77.1464 66.3648 78.5419 69.3508C79.4788 71.3632 80.0988 72.6917 80.1003 74.1816C80.1003 75.9259 79.2228 77.2711 78.158 78.7229C77.9584 78.9956 77.7603 79.2561 77.5684 79.509C76.4091 81.0325 76.1546 81.4727 76.3222 82.2588C76.6619 83.8386 79.1954 88.5415 83.359 92.6959C87.5225 96.8503 92.0898 99.2238 93.6757 99.562C94.4953 99.7372 94.9447 99.4722 96.5169 98.2717C96.7424 98.0995 96.9739 97.9213 97.2162 97.7431C98.8401 96.535 100.123 95.6803 101.826 95.6803H101.835C103.318 95.6803 104.587 96.3232 106.689 97.3835C109.431 98.7668 115.694 102.501 118.441 105.272C119.777 106.619 120.522 107.478 120.886 108.442C121.434 109.894 120.918 111.032 120.581 111.794C120.525 111.92 120.462 112.059 120.397 112.213C119.756 113.732 118.976 115.19 118.067 116.567C116.448 118.989 114.807 120.864 112.068 122.139C110.662 122.805 109.122 123.142 107.566 123.125Z" fill="white"/>
</svg>
